<svg xmlns="http://www.w3.org/2000/svg" width="22.807" height="22.807" viewBox="0 0 22.807 22.807">
  <path id="Icon_awesome-linkedin-in" data-name="Icon awesome-linkedin-in" d="M5.105,22.807H.377V7.58H5.105ZM2.738,5.5A2.751,2.751,0,1,1,5.477,2.739,2.761,2.761,0,0,1,2.738,5.5ZM22.8,22.807H18.084V15.395c0-1.767-.036-4.032-2.458-4.032-2.458,0-2.835,1.919-2.835,3.9v7.54H8.067V7.58H12.6V9.657h.066A4.968,4.968,0,0,1,17.142,7.2c4.785,0,5.665,3.151,5.665,7.244v8.364Z" transform="translate(0 0)" fill="#fff"/>
</svg>
