<svg xmlns="http://www.w3.org/2000/svg" width="24.117" height="24.117" viewBox="0 0 24.117 24.117">
  <path id="Icon_awesome-phone-alt" data-name="Icon awesome-phone-alt" d="M23.429,17.042l-5.276-2.261a1.13,1.13,0,0,0-1.319.325L14.5,17.961A17.459,17.459,0,0,1,6.152,9.614L9.006,7.278a1.128,1.128,0,0,0,.325-1.319L7.07.684a1.138,1.138,0,0,0-1.3-.655l-4.9,1.13A1.13,1.13,0,0,0,0,2.261,21.854,21.854,0,0,0,21.856,24.117a1.13,1.13,0,0,0,1.1-.876l1.13-4.9A1.144,1.144,0,0,0,23.429,17.042Z" transform="translate(0 0)" fill="#123f5c"/>
</svg>
